PathFileType	4	(X/Y/Z)	Patient4_TMGait_0pt4_01_right_09.trc.trc
DataRate	CameraRate	NumFrames	NumMarkers	Units	OrigDataRate	OrigDataStartFrame	OrigNumFrames
73.684210526316	73.684210526316	5	33	mm	73.684210526316	1	       141
Frame#	Time	Sacral			L.Shoulder			Chest			R.Shoulder			Neck			R.ASIS			L.ASIS			R.Thigh.Superior			R.Thigh.Lateral			R.Thigh.Inferior			R.Patella			L.Thigh.Superior			L.Thigh.Lateral			L.Thigh.Inferior			L.Patella			L.Shank.Superior			L.Shank.Lateral			L.Shank.Inferior			R.Shank.Superior			R.Shank.Lateral			R.Shank.Inferior			R.Heel			R.Midfoot.Superior			R.Midfoot.Lateral			R.Toe			L.Heel			L.Midfoot.Lateral			L.Midfoot.Superior			L.Toe			L.Elbow			L.Wrist			R.Elbow			R.Wrist			
		X1	Y1	Z1	X2	Y2	Z2	X3	Y3	Z3	X4	Y4	Z4	X5	Y5	Z5	X6	Y6	Z6	X7	Y7	Z7	X8	Y8	Z8	X9	Y9	Z9	X10	Y10	Z10	X11	Y11	Z11	X12	Y12	Z12	X13	Y13	Z13	X14	Y14	Z14	X15	Y15	Z15	X16	Y16	Z16	X17	Y17	Z17	X18	Y18	Z18	X19	Y19	Z19	X20	Y20	Z20	X21	Y21	Z21	X22	Y22	Z22	X23	Y23	Z23	X24	Y24	Z24	X25	Y25	Z25	X26	Y26	Z26	X27	Y27	Z27	X28	Y28	Z28	X29	Y29	Z29	X30	Y30	Z30	X31	Y31	Z31	X32	Y32	Z32	X33	Y33	Z33	

1	11.330000000000	800.331229703681	1008.428629637742	451.856172999132	992.909132672086	1437.392426262236	271.939375908639	1083.135381706789	1371.344327698550	440.555318406401	987.935396524526	1445.285506288344	608.476338371421	965.919285454099	1500.874287744090	426.970323452092	1025.394522467054	951.104682820332	579.312894271611	1024.687839192771	967.454506287418	304.247954191970	1104.195106581151	773.024861034783	553.286315418596	1057.621375301198	654.219823719596	626.304667815628	1146.501853659037	609.813622475060	549.720043211840	1159.992157014554	498.397215887381	574.703174134546	1069.659262237154	750.987306016915	337.740675681568	979.743516428151	635.455086479334	280.195699413851	1059.717981847799	557.665423234795	348.305635225641	1057.153245223889	488.858808322219	360.395599474327	1029.627655928228	417.376513949368	351.950045671117	939.831217464627	303.736686394683	302.159715996302	985.755592780809	192.753095415406	376.043730200918	1083.033116846054	424.865886304725	583.788964611881	961.851136587395	388.796193270998	647.110619681473	945.079581541140	278.603921274471	600.895195091040	742.963370121364	223.228788541921	578.808359640328	910.856107267390	157.775826603962	617.404556964525	800.608462132675	159.201191761906	649.684419677296	969.946064006984	39.958746904319	637.738799700482	854.851079046015	38.664611938784	419.420190330895	928.151186469067	35.881059569892	338.231289793975	1012.272133598678	96.043192986209	364.570177368613	1140.439838471549	41.469401156407	334.601376347139	1007.121395340084	1092.862183971495	134.065803352118	1185.451612139037	900.990131704197	150.203006812075	922.813211737335	1103.537936278530	728.934772357807	973.085593100791	847.125768198216	742.190846528204	
2	11.343571428571	799.006652641164	1009.154403113951	450.087086777367	994.774144796635	1437.786098473514	271.531103275109	1082.533056995315	1371.645938598632	441.284995542579	985.345705401396	1445.891104673417	607.821851609275	965.648234924031	1501.312751626858	426.413856349414	1023.059445934681	952.046646178434	579.434840885834	1025.325194592917	967.975972586542	304.094612542428	1103.399638379836	775.551104424274	553.080845994007	1058.315010451962	656.231903584754	626.265383972891	1147.386476318083	612.739759611356	549.407297086486	1162.755893248143	502.217541362256	574.494089822171	1066.925461019902	750.291803368439	338.173597420249	976.067595801823	635.634911195964	279.687875012865	1054.696044232102	557.108400325915	348.168868069646	1051.415898414382	488.592710759273	360.138634491718	1024.045999125386	417.346780293076	351.547997697445	934.210216404039	303.720171728259	301.628581400979	979.917682412170	192.726727958807	375.729831140220	1088.143338536604	426.972184013887	583.690673665274	968.594350570173	386.200329998988	646.699257490116	956.359016957760	275.578182640322	600.570351012009	757.113201191979	211.439462710621	577.652231040285	927.142081166741	154.215957735393	617.634008654893	817.023644702603	151.063246311359	649.498608285383	991.168603876009	39.870398782805	639.618099085717	849.024695071511	38.666656482302	419.336087773826	922.342471610704	35.825916551788	338.128904755898	1006.442100387379	96.002525679765	364.429249534424	1134.661222727108	41.407524102177	334.588749908846	1013.039451293692	1094.315012262855	132.460174231266	1197.575235424506	909.192897723133	149.278737183041	910.505512096205	1106.140399053254	726.129518304768	952.911550836311	848.703906954470	737.903085710275	
3	11.357142857143	797.678928680476	1009.842025804038	448.350400068667	996.613668558276	1438.123622079284	271.147843741439	1081.926525669335	1371.911509643497	442.030687289026	982.771306374599	1446.476158757826	607.183202885175	965.380179231792	1501.715993309317	425.868677831856	1020.710640322506	952.932482632409	579.601519507666	1025.834647018515	968.414082492006	304.026810248380	1102.530633258563	777.960755391262	552.923513927104	1058.867611623609	658.145779391885	626.258270838560	1148.097469084290	615.525522026490	549.138247039470	1165.323198978710	505.956920482589	574.348240016878	1064.204978988434	749.589214157456	338.641700307671	972.421150884107	635.806268390574	279.197550069215	1049.706919442773	556.550081405462	348.040499131345	1045.709498793721	488.322358401378	359.890938503257	1018.498943534568	417.305604789953	351.160607881929	928.630381000709	303.694580468638	301.111187414069	974.116116743032	192.695336010231	375.431089083200	1093.140821424213	428.986711431482	583.645145078588	975.332886598579	383.419306247127	646.359614622469	967.750026103999	272.410099965984	600.306519013775	771.548867628727	199.374754142306	576.586382585047	943.644730729352	150.534783675003	617.903104291515	833.730002466044	142.706549866959	649.378097855298	1012.648999760252	39.777995375603	641.487410751129	843.228164756772	38.665112243927	419.254521889433	916.562363682899	35.771382528413	338.029423591048	1000.641974369830	95.963755314527	364.295481858704	1128.911293881296	41.349816669605	334.576684912261	1018.929351164172	1095.712813214336	130.913399834614	1209.552651160495	917.310821663756	148.395594700338	898.366760243623	1108.754600137807	723.336956185778	933.068685512213	850.345496591506	733.621092551467	
4	11.370714285714	796.356114204645	1010.457583958763	446.690749208985	998.394108191497	1438.357503524201	270.822684412666	1081.318128190927	1372.107733732433	442.807917035603	980.249003763136	1447.017588063561	606.588440873643	965.120973988941	1502.051932600732	425.356733239547	1018.353469810720	953.707953859385	579.854785715361	1026.123399216164	968.704850082668	304.112882732451	1101.500318604717	780.110190739387	552.868780957561	1059.101921523135	659.849014176214	626.325854439029	1148.434015274337	618.005884628741	548.965222461574	1167.451822104562	509.503753870807	574.310006382703	1061.513521073355	748.875049549249	339.171842884338	968.837865349868	635.960928432341	278.743809719214	1044.790834549618	555.990446049976	347.931326762754	1040.078326723770	488.045276791815	359.662712658699	1013.028754050305	417.244109944930	350.803650843696	923.138550753203	303.652836881556	300.620621952423	968.395168021627	192.654846901603	375.162610164151	1097.862654879197	430.827504280596	583.692086889916	982.034045248072	380.330801641755	646.162054048726	979.288756794402	269.049562719032	600.153863158616	786.498890116777	186.939327731073	575.704509603766	960.489949344235	146.722721175158	618.229977742009	850.945396227863	134.067956180863	649.378275023932	1034.506382191366	39.772040243685	643.289180158297	837.501252835120	38.657374883777	419.178317792512	910.850214417176	35.717476804566	337.935757253933	994.912169033627	95.927975084292	364.175265115257	1123.229272150320	41.300716477380	334.566192652156	1024.738875605482	1097.006065430540	129.496433385653	1221.186534360739	925.212583351632	147.604297719046	886.634254655364	1111.363841117091	720.596058423522	913.986354756711	852.078204080099	729.384377899981	
5	11.384285714286	795.042581769296	1010.977115413469	445.143420389296	1000.089342092021	1438.450050278663	270.585931863331	1080.709912604482	1372.207803439187	443.633068215523	977.809356637145	1447.496534437408	606.064703798201	964.875940167891	1502.294611413658	424.900869471132	1015.990370302777	954.328383560282	580.231561850286	1026.136234892864	968.807136548318	304.401051644912	1100.219484142225	781.870482084344	552.964959866912	1058.844606416729	661.242039084611	626.506403794816	1148.207047328587	620.035273714979	548.936729140705	1168.917569870779	512.762515687249	574.409314554282	1058.855694995004	748.142590762448	339.782403297174	965.333206253065	636.092675965426	278.341549747438	1039.964750574292	555.427171607660	347.851601669291	1034.542885747821	487.758651839908	359.462595586945	1007.652918437669	417.155496637825	350.489111931103	917.753826734369	303.589322838124	300.165654946785	962.772808960483	192.602375754760	374.936408731935	1102.166649215309	432.434418763551	583.858579903933	988.692662890480	376.840323190382	646.169704457379	991.029087551180	265.480305357427	600.152067905095	802.211716382408	174.077018269440	575.092144534962	977.826553430748	142.810533021628	618.625468978115	868.912683243579	125.128704813475	649.545702809688	1056.884009343396	39.984410629647	644.963128192227	831.858262235119	38.640898608693	419.109352165303	905.219292380029	35.663961983972	337.849835544024	989.266300760147	95.895676106204	364.073383126595	1117.628157282275	41.263957299521	334.558104020970	1030.441337088415	1098.159525418370	128.269104297980	1232.337304313355	932.797543013430	146.949903499850	875.491484348080	1113.951167978049	717.937470427205	895.992827729318	853.915045450291	725.224319000053	
